<?xml version="1.0" encoding="utf-8"?><svg xmlns="http://www.w3.org/2000/svg" xmlns:xlink="http://www.w3.org/1999/xlink" x="-297.5" y="-421" width="595px" height="842px" viewBox="-297.5 -421 595 842">
<g>
<path d="M-95 -361L95 -361L95 -171L-95 -171Z" style="fill:#FF0000;fill-opacity:0;stroke:#000000;stroke-width:1;"/>
<path d="M-285 -171L-95 -171L-95 19L-285 19Z" style="fill:#FF0000;fill-opacity:0;stroke:#000000;stroke-width:1;"/>
<path d="M-95 -171L95 -171L95 19L-95 19Z" style="fill:#FF0000;fill-opacity:0;stroke:#000000;stroke-width:1;"/>
<path d="M95 -171L285 -171L285 19L95 19Z" style="fill:#FF0000;fill-opacity:0;stroke:#000000;stroke-width:1;"/>
<path d="M-95 19L95 19L95 209L-95 209Z" style="fill:#FF0000;fill-opacity:0;stroke:#000000;stroke-width:1;"/>
<path d="M-95 209L95 209L95 399L-95 399Z" style="fill:#FF0000;fill-opacity:0;stroke:#000000;stroke-width:1;"/>
<g><path d="M-76 -315.0322580645161C-76 -329.9261306728562 -63.92613067285624 -342 -49.03225806451612 -342C-34.13838545617602 -342 -22.064516129032256 -329.9261306728562 -22.064516129032256 -315.0322580645161C-22.064516129032256 -300.138385456176 -34.13838545617602 -288.06451612903226 -49.03225806451612 -288.06451612903226C-63.92613067285624 -288.06451612903226 -76 -300.138385456176 -76 -315.0322580645161Z"/><path d="M-26.96774193548387 -315.0322580645161C-26.96774193548387 -329.9261306728562 -14.893872608340109 -342 0 -342C14.893872608340109 -342 26.96774193548387 -329.9261306728562 26.96774193548387 -315.0322580645161C26.96774193548387 -300.138385456176 14.893872608340109 -288.06451612903226 0 -288.06451612903226C-14.893872608340109 -288.06451612903226 -26.96774193548387 -300.138385456176 -26.96774193548387 -315.0322580645161Z"/><path d="M22.064516129032256 -315.0322580645161C22.064516129032256 -329.9261306728562 34.13838545617602 -342 49.03225806451612 -342C63.92613067285624 -342 76 -329.9261306728562 76 -315.0322580645161C76 -300.138385456176 63.92613067285624 -288.06451612903226 49.03225806451612 -288.06451612903226C34.13838545617602 -288.06451612903226 22.064516129032256 -300.138385456176 22.064516129032256 -315.0322580645161Z"/><path d="M-76 -266C-76 -280.8938726083401 -63.92613067285624 -292.96774193548384 -49.03225806451612 -292.96774193548384C-34.13838545617602 -292.96774193548384 -22.064516129032256 -280.8938726083401 -22.064516129032256 -266C-22.064516129032256 -251.10612739165992 -34.13838545617602 -239.03225806451613 -49.03225806451612 -239.03225806451613C-63.92613067285624 -239.03225806451613 -76 -251.10612739165992 -76 -266Z"/><path d="M-26.96774193548387 -266C-26.96774193548387 -280.8938726083401 -14.893872608340109 -292.96774193548384 0 -292.96774193548384C14.893872608340109 -292.96774193548384 26.96774193548387 -280.8938726083401 26.96774193548387 -266C26.96774193548387 -251.10612739165992 14.893872608340109 -239.03225806451613 0 -239.03225806451613C-14.893872608340109 -239.03225806451613 -26.96774193548387 -251.10612739165992 -26.96774193548387 -266Z"/><path d="M22.064516129032256 -266C22.064516129032256 -280.8938726083401 34.13838545617602 -292.96774193548384 49.03225806451612 -292.96774193548384C63.92613067285624 -292.96774193548384 76 -280.8938726083401 76 -266C76 -251.10612739165992 63.92613067285624 -239.03225806451613 49.03225806451612 -239.03225806451613C34.13838545617602 -239.03225806451613 22.064516129032256 -251.10612739165992 22.064516129032256 -266Z"/><path d="M-76 -216.96774193548384C-76 -231.86161454382398 -63.92613067285624 -243.93548387096772 -49.03225806451612 -243.93548387096772C-34.13838545617602 -243.93548387096772 -22.064516129032256 -231.86161454382398 -22.064516129032256 -216.96774193548384C-22.064516129032256 -202.07386932714374 -34.13838545617602 -190 -49.03225806451612 -190C-63.92613067285624 -190 -76 -202.07386932714374 -76 -216.96774193548384Z"/><path d="M-26.96774193548387 -216.96774193548384C-26.96774193548387 -231.86161454382398 -14.893872608340109 -243.93548387096772 0 -243.93548387096772C14.893872608340109 -243.93548387096772 26.96774193548387 -231.86161454382398 26.96774193548387 -216.96774193548384C26.96774193548387 -202.07386932714374 14.893872608340109 -190 0 -190C-14.893872608340109 -190 -26.96774193548387 -202.07386932714374 -26.96774193548387 -216.96774193548384Z"/><path d="M22.064516129032256 -216.96774193548384C22.064516129032256 -231.86161454382398 34.13838545617602 -243.93548387096772 49.03225806451612 -243.93548387096772C63.92613067285624 -243.93548387096772 76 -231.86161454382398 76 -216.96774193548384C76 -202.07386932714374 63.92613067285624 -190 49.03225806451612 -190C34.13838545617602 -190 22.064516129032256 -202.07386932714374 22.064516129032256 -216.96774193548384Z"/><path d="M-66.19354838709677 -315.0322580645161C-66.19354838709677 -324.5101769970962 -58.510176997096195 -332.19354838709677 -49.03225806451612 -332.19354838709677C-39.554339131936054 -332.19354838709677 -31.87096774193548 -324.5101769970962 -31.87096774193548 -315.0322580645161C-31.87096774193548 -305.55433913193605 -39.554339131936054 -297.8709677419355 -49.03225806451612 -297.8709677419355C-58.510176997096195 -297.8709677419355 -66.19354838709677 -305.55433913193605 -66.19354838709677 -315.0322580645161Z" style="fill:#FFFFFF;"/><path d="M-17.161290322580644 -315.0322580645161C-17.161290322580644 -324.5101769970962 -9.477918932580069 -332.19354838709677 0 -332.19354838709677C9.477918932580069 -332.19354838709677 17.161290322580644 -324.5101769970962 17.161290322580644 -315.0322580645161C17.161290322580644 -305.55433913193605 9.477918932580069 -297.8709677419355 0 -297.8709677419355C-9.477918932580069 -297.8709677419355 -17.161290322580644 -305.55433913193605 -17.161290322580644 -315.0322580645161Z" style="fill:#FFFFFF;"/><path d="M31.87096774193548 -315.0322580645161C31.87096774193548 -324.5101769970962 39.554339131936054 -332.19354838709677 49.03225806451612 -332.19354838709677C58.510176997096195 -332.19354838709677 66.19354838709677 -324.5101769970962 66.19354838709677 -315.0322580645161C66.19354838709677 -305.55433913193605 58.510176997096195 -297.8709677419355 49.03225806451612 -297.8709677419355C39.554339131936054 -297.8709677419355 31.87096774193548 -305.55433913193605 31.87096774193548 -315.0322580645161Z" style="fill:#FFFFFF;"/><path d="M-66.19354838709677 -266C-66.19354838709677 -275.47791893258005 -58.510176997096195 -283.1612903225806 -49.03225806451612 -283.1612903225806C-39.554339131936054 -283.1612903225806 -31.87096774193548 -275.47791893258005 -31.87096774193548 -266C-31.87096774193548 -256.5220810674199 -39.554339131936054 -248.83870967741933 -49.03225806451612 -248.83870967741933C-58.510176997096195 -248.83870967741933 -66.19354838709677 -256.5220810674199 -66.19354838709677 -266Z" style="fill:#FFFFFF;"/><path d="M-17.161290322580644 -266C-17.161290322580644 -275.47791893258005 -9.477918932580069 -283.1612903225806 0 -283.1612903225806C9.477918932580069 -283.1612903225806 17.161290322580644 -275.47791893258005 17.161290322580644 -266C17.161290322580644 -256.5220810674199 9.477918932580069 -248.83870967741933 0 -248.83870967741933C-9.477918932580069 -248.83870967741933 -17.161290322580644 -256.5220810674199 -17.161290322580644 -266Z" style="fill:#FFFFFF;"/><path d="M31.87096774193548 -266C31.87096774193548 -275.47791893258005 39.554339131936054 -283.1612903225806 49.03225806451612 -283.1612903225806C58.510176997096195 -283.1612903225806 66.19354838709677 -275.47791893258005 66.19354838709677 -266C66.19354838709677 -256.5220810674199 58.510176997096195 -248.83870967741933 49.03225806451612 -248.83870967741933C39.554339131936054 -248.83870967741933 31.87096774193548 -256.5220810674199 31.87096774193548 -266Z" style="fill:#FFFFFF;"/><path d="M-66.19354838709677 -216.96774193548384C-66.19354838709677 -226.44566086806392 -58.510176997096195 -234.12903225806448 -49.03225806451612 -234.12903225806448C-39.554339131936054 -234.12903225806448 -31.87096774193548 -226.44566086806392 -31.87096774193548 -216.96774193548384C-31.87096774193548 -207.4898230029038 -39.554339131936054 -199.8064516129032 -49.03225806451612 -199.8064516129032C-58.510176997096195 -199.8064516129032 -66.19354838709677 -207.4898230029038 -66.19354838709677 -216.96774193548384Z" style="fill:#FFFFFF;"/><path d="M-17.161290322580644 -216.96774193548384C-17.161290322580644 -226.44566086806392 -9.477918932580069 -234.12903225806448 0 -234.12903225806448C9.477918932580069 -234.12903225806448 17.161290322580644 -226.44566086806392 17.161290322580644 -216.96774193548384C17.161290322580644 -207.4898230029038 9.477918932580069 -199.8064516129032 0 -199.8064516129032C-9.477918932580069 -199.8064516129032 -17.161290322580644 -207.4898230029038 -17.161290322580644 -216.96774193548384Z" style="fill:#FFFFFF;"/><path d="M31.87096774193548 -216.96774193548384C31.87096774193548 -226.44566086806392 39.554339131936054 -234.12903225806448 49.03225806451612 -234.12903225806448C58.510176997096195 -234.12903225806448 66.19354838709677 -226.44566086806392 66.19354838709677 -216.96774193548384C66.19354838709677 -207.4898230029038 58.510176997096195 -199.8064516129032 49.03225806451612 -199.8064516129032C39.554339131936054 -199.8064516129032 31.87096774193548 -207.4898230029038 31.87096774193548 -216.96774193548384Z" style="fill:#FFFFFF;"/><path d="M-24.51612903225806 -307.8516501194121L-7.180607945103995 -290.51612903225805L-24.51612903225806 -273.180607945104L-41.851650119412135 -290.51612903225805Z"/><path d="M24.51612903225806 -307.8516501194121L41.851650119412135 -290.51612903225805L24.51612903225806 -273.180607945104L7.180607945103995 -290.51612903225805Z"/><path d="M-24.51612903225806 -258.819392054896L-7.180607945103995 -241.48387096774192L-24.51612903225806 -224.14834988058783L-41.851650119412135 -241.48387096774192Z"/><path d="M24.51612903225806 -258.819392054896L41.851650119412135 -241.48387096774192L24.51612903225806 -224.14834988058783L7.180607945103995 -241.48387096774192Z"/><path d="M-56.387096774193544 -315.0322580645161C-56.387096774193544 -319.09422332133613 -53.09422332133615 -322.38709677419354 -49.03225806451612 -322.38709677419354C-44.9702928076961 -322.38709677419354 -41.677419354838705 -319.09422332133613 -41.677419354838705 -315.0322580645161C-41.677419354838705 -310.97029280769607 -44.9702928076961 -307.6774193548387 -49.03225806451612 -307.6774193548387C-53.09422332133615 -307.6774193548387 -56.387096774193544 -310.97029280769607 -56.387096774193544 -315.0322580645161Z"/><path d="M-7.354838709677419 -315.0322580645161C-7.354838709677419 -319.09422332133613 -4.06196525682003 -322.38709677419354 0 -322.38709677419354C4.06196525682003 -322.38709677419354 7.354838709677419 -319.09422332133613 7.354838709677419 -315.0322580645161C7.354838709677419 -310.97029280769607 4.06196525682003 -307.6774193548387 0 -307.6774193548387C-4.06196525682003 -307.6774193548387 -7.354838709677419 -310.97029280769607 -7.354838709677419 -315.0322580645161Z" style="fill:#FFFFFF;"/><path d="M41.677419354838705 -315.0322580645161C41.677419354838705 -319.09422332133613 44.9702928076961 -322.38709677419354 49.03225806451612 -322.38709677419354C53.09422332133615 -322.38709677419354 56.387096774193544 -319.09422332133613 56.387096774193544 -315.0322580645161C56.387096774193544 -310.97029280769607 53.09422332133615 -307.6774193548387 49.03225806451612 -307.6774193548387C44.9702928076961 -307.6774193548387 41.677419354838705 -310.97029280769607 41.677419354838705 -315.0322580645161Z"/><path d="M-56.387096774193544 -266C-56.387096774193544 -270.06196525682 -53.09422332133615 -273.35483870967744 -49.03225806451612 -273.35483870967744C-44.9702928076961 -273.35483870967744 -41.677419354838705 -270.06196525682 -41.677419354838705 -266C-41.677419354838705 -261.93803474317997 -44.9702928076961 -258.64516129032256 -49.03225806451612 -258.64516129032256C-53.09422332133615 -258.64516129032256 -56.387096774193544 -261.93803474317997 -56.387096774193544 -266Z" style="fill:#FFFFFF;"/><path d="M-7.354838709677419 -266C-7.354838709677419 -270.06196525682 -4.06196525682003 -273.35483870967744 0 -273.35483870967744C4.06196525682003 -273.35483870967744 7.354838709677419 -270.06196525682 7.354838709677419 -266C7.354838709677419 -261.93803474317997 4.06196525682003 -258.64516129032256 0 -258.64516129032256C-4.06196525682003 -258.64516129032256 -7.354838709677419 -261.93803474317997 -7.354838709677419 -266Z"/><path d="M41.677419354838705 -266C41.677419354838705 -270.06196525682 44.9702928076961 -273.35483870967744 49.03225806451612 -273.35483870967744C53.09422332133615 -273.35483870967744 56.387096774193544 -270.06196525682 56.387096774193544 -266C56.387096774193544 -261.93803474317997 53.09422332133615 -258.64516129032256 49.03225806451612 -258.64516129032256C44.9702928076961 -258.64516129032256 41.677419354838705 -261.93803474317997 41.677419354838705 -266Z" style="fill:#FFFFFF;"/><path d="M-56.387096774193544 -216.96774193548384C-56.387096774193544 -221.0297071923039 -53.09422332133615 -224.32258064516128 -49.03225806451612 -224.32258064516128C-44.9702928076961 -224.32258064516128 -41.677419354838705 -221.0297071923039 -41.677419354838705 -216.96774193548384C-41.677419354838705 -212.90577667866384 -44.9702928076961 -209.61290322580646 -49.03225806451612 -209.61290322580646C-53.09422332133615 -209.61290322580646 -56.387096774193544 -212.90577667866384 -56.387096774193544 -216.96774193548384Z"/><path d="M-7.354838709677419 -216.96774193548384C-7.354838709677419 -221.0297071923039 -4.06196525682003 -224.32258064516128 0 -224.32258064516128C4.06196525682003 -224.32258064516128 7.354838709677419 -221.0297071923039 7.354838709677419 -216.96774193548384C7.354838709677419 -212.90577667866384 4.06196525682003 -209.61290322580646 0 -209.61290322580646C-4.06196525682003 -209.61290322580646 -7.354838709677419 -212.90577667866384 -7.354838709677419 -216.96774193548384Z" style="fill:#FFFFFF;"/><path d="M41.677419354838705 -216.96774193548384C41.677419354838705 -221.0297071923039 44.9702928076961 -224.32258064516128 49.03225806451612 -224.32258064516128C53.09422332133615 -224.32258064516128 56.387096774193544 -221.0297071923039 56.387096774193544 -216.96774193548384C56.387096774193544 -212.90577667866384 53.09422332133615 -209.61290322580646 49.03225806451612 -209.61290322580646C44.9702928076961 -209.61290322580646 41.677419354838705 -212.90577667866384 41.677419354838705 -216.96774193548384Z"/></g>
<g><path d="M-266 -125.03225806451613C-266 -139.92613067285623 -253.9261306728562 -152 -239.03225806451613 -152C-224.138385456176 -152 -212.06451612903226 -139.92613067285623 -212.06451612903226 -125.03225806451613C-212.06451612903226 -110.13838545617601 -224.138385456176 -98.06451612903224 -239.03225806451613 -98.06451612903224C-253.9261306728562 -98.06451612903224 -266 -110.13838545617601 -266 -125.03225806451613Z"/><path d="M-216.96774193548384 -125.03225806451613C-216.96774193548384 -139.92613067285623 -204.8938726083401 -152 -190 -152C-175.1061273916599 -152 -163.03225806451613 -139.92613067285623 -163.03225806451613 -125.03225806451613C-163.03225806451613 -110.13838545617601 -175.1061273916599 -98.06451612903224 -190 -98.06451612903224C-204.8938726083401 -98.06451612903224 -216.96774193548384 -110.13838545617601 -216.96774193548384 -125.03225806451613Z"/><path d="M-167.93548387096774 -125.03225806451613C-167.93548387096774 -139.92613067285623 -155.86161454382398 -152 -140.96774193548384 -152C-126.07386932714375 -152 -114 -139.92613067285623 -114 -125.03225806451613C-114 -110.13838545617601 -126.07386932714375 -98.06451612903224 -140.96774193548384 -98.06451612903224C-155.86161454382398 -98.06451612903224 -167.93548387096774 -110.13838545617601 -167.93548387096774 -125.03225806451613Z"/><path d="M-266 -76C-266 -90.8938726083401 -253.9261306728562 -102.96774193548387 -239.03225806451613 -102.96774193548387C-224.138385456176 -102.96774193548387 -212.06451612903226 -90.8938726083401 -212.06451612903226 -76C-212.06451612903226 -61.106127391659896 -224.138385456176 -49.03225806451612 -239.03225806451613 -49.03225806451612C-253.9261306728562 -49.03225806451612 -266 -61.106127391659896 -266 -76Z"/><path d="M-216.96774193548384 -76C-216.96774193548384 -90.8938726083401 -204.8938726083401 -102.96774193548387 -190 -102.96774193548387C-175.1061273916599 -102.96774193548387 -163.03225806451613 -90.8938726083401 -163.03225806451613 -76C-163.03225806451613 -61.106127391659896 -175.1061273916599 -49.03225806451612 -190 -49.03225806451612C-204.8938726083401 -49.03225806451612 -216.96774193548384 -61.106127391659896 -216.96774193548384 -76Z"/><path d="M-167.93548387096774 -76C-167.93548387096774 -90.8938726083401 -155.86161454382398 -102.96774193548387 -140.96774193548384 -102.96774193548387C-126.07386932714375 -102.96774193548387 -114 -90.8938726083401 -114 -76C-114 -61.106127391659896 -126.07386932714375 -49.03225806451612 -140.96774193548384 -49.03225806451612C-155.86161454382398 -49.03225806451612 -167.93548387096774 -61.106127391659896 -167.93548387096774 -76Z"/><path d="M-266 -26.967741935483872C-266 -41.86161454382398 -253.9261306728562 -53.93548387096774 -239.03225806451613 -53.93548387096774C-224.138385456176 -53.93548387096774 -212.06451612903226 -41.86161454382398 -212.06451612903226 -26.967741935483872C-212.06451612903226 -12.073869327143758 -224.138385456176 0 -239.03225806451613 0C-253.9261306728562 0 -266 -12.073869327143758 -266 -26.967741935483872Z"/><path d="M-216.96774193548384 -26.967741935483872C-216.96774193548384 -41.86161454382398 -204.8938726083401 -53.93548387096774 -190 -53.93548387096774C-175.1061273916599 -53.93548387096774 -163.03225806451613 -41.86161454382398 -163.03225806451613 -26.967741935483872C-163.03225806451613 -12.073869327143758 -175.1061273916599 0 -190 0C-204.8938726083401 0 -216.96774193548384 -12.073869327143758 -216.96774193548384 -26.967741935483872Z"/><path d="M-167.93548387096774 -26.967741935483872C-167.93548387096774 -41.86161454382398 -155.86161454382398 -53.93548387096774 -140.96774193548384 -53.93548387096774C-126.07386932714375 -53.93548387096774 -114 -41.86161454382398 -114 -26.967741935483872C-114 -12.073869327143758 -126.07386932714375 0 -140.96774193548384 0C-155.86161454382398 0 -167.93548387096774 -12.073869327143758 -167.93548387096774 -26.967741935483872Z"/><path d="M-256.19354838709677 -125.03225806451613C-256.19354838709677 -134.51017699709618 -248.5101769970962 -142.19354838709677 -239.03225806451613 -142.19354838709677C-229.55433913193605 -142.19354838709677 -221.8709677419355 -134.51017699709618 -221.8709677419355 -125.03225806451613C-221.8709677419355 -115.55433913193605 -229.55433913193605 -107.87096774193547 -239.03225806451613 -107.87096774193547C-248.5101769970962 -107.87096774193547 -256.19354838709677 -115.55433913193605 -256.19354838709677 -125.03225806451613Z" style="fill:#FFFFFF;"/><path d="M-207.16129032258064 -125.03225806451613C-207.16129032258064 -134.51017699709618 -199.47791893258005 -142.19354838709677 -190 -142.19354838709677C-180.52208106741992 -142.19354838709677 -172.83870967741936 -134.51017699709618 -172.83870967741936 -125.03225806451613C-172.83870967741936 -115.55433913193605 -180.52208106741992 -107.87096774193547 -190 -107.87096774193547C-199.47791893258005 -107.87096774193547 -207.16129032258064 -115.55433913193605 -207.16129032258064 -125.03225806451613Z" style="fill:#FFFFFF;"/><path d="M-158.12903225806448 -125.03225806451613C-158.12903225806448 -134.51017699709618 -150.44566086806395 -142.19354838709677 -140.96774193548384 -142.19354838709677C-131.4898230029038 -142.19354838709677 -123.80645161290322 -134.51017699709618 -123.80645161290322 -125.03225806451613C-123.80645161290322 -115.55433913193605 -131.4898230029038 -107.87096774193547 -140.96774193548384 -107.87096774193547C-150.44566086806395 -107.87096774193547 -158.12903225806448 -115.55433913193605 -158.12903225806448 -125.03225806451613Z" style="fill:#FFFFFF;"/><path d="M-256.19354838709677 -76C-256.19354838709677 -85.47791893258007 -248.5101769970962 -93.16129032258064 -239.03225806451613 -93.16129032258064C-229.55433913193605 -93.16129032258064 -221.8709677419355 -85.47791893258007 -221.8709677419355 -76C-221.8709677419355 -66.52208106741992 -229.55433913193605 -58.83870967741935 -239.03225806451613 -58.83870967741935C-248.5101769970962 -58.83870967741935 -256.19354838709677 -66.52208106741992 -256.19354838709677 -76Z" style="fill:#FFFFFF;"/><path d="M-207.16129032258064 -76C-207.16129032258064 -85.47791893258007 -199.47791893258005 -93.16129032258064 -190 -93.16129032258064C-180.52208106741992 -93.16129032258064 -172.83870967741936 -85.47791893258007 -172.83870967741936 -76C-172.83870967741936 -66.52208106741992 -180.52208106741992 -58.83870967741935 -190 -58.83870967741935C-199.47791893258005 -58.83870967741935 -207.16129032258064 -66.52208106741992 -207.16129032258064 -76Z" style="fill:#FFFFFF;"/><path d="M-158.12903225806448 -76C-158.12903225806448 -85.47791893258007 -150.44566086806395 -93.16129032258064 -140.96774193548384 -93.16129032258064C-131.4898230029038 -93.16129032258064 -123.80645161290322 -85.47791893258007 -123.80645161290322 -76C-123.80645161290322 -66.52208106741992 -131.4898230029038 -58.83870967741935 -140.96774193548384 -58.83870967741935C-150.44566086806395 -58.83870967741935 -158.12903225806448 -66.52208106741992 -158.12903225806448 -76Z" style="fill:#FFFFFF;"/><path d="M-256.19354838709677 -26.967741935483872C-256.19354838709677 -36.445660868063946 -248.5101769970962 -44.12903225806451 -239.03225806451613 -44.12903225806451C-229.55433913193605 -44.12903225806451 -221.8709677419355 -36.445660868063946 -221.8709677419355 -26.967741935483872C-221.8709677419355 -17.4898230029038 -229.55433913193605 -9.80645161290323 -239.03225806451613 -9.80645161290323C-248.5101769970962 -9.80645161290323 -256.19354838709677 -17.4898230029038 -256.19354838709677 -26.967741935483872Z" style="fill:#FFFFFF;"/><path d="M-207.16129032258064 -26.967741935483872C-207.16129032258064 -36.445660868063946 -199.47791893258005 -44.12903225806451 -190 -44.12903225806451C-180.52208106741992 -44.12903225806451 -172.83870967741936 -36.445660868063946 -172.83870967741936 -26.967741935483872C-172.83870967741936 -17.4898230029038 -180.52208106741992 -9.80645161290323 -190 -9.80645161290323C-199.47791893258005 -9.80645161290323 -207.16129032258064 -17.4898230029038 -207.16129032258064 -26.967741935483872Z" style="fill:#FFFFFF;"/><path d="M-158.12903225806448 -26.967741935483872C-158.12903225806448 -36.445660868063946 -150.44566086806395 -44.12903225806451 -140.96774193548384 -44.12903225806451C-131.4898230029038 -44.12903225806451 -123.80645161290322 -36.445660868063946 -123.80645161290322 -26.967741935483872C-123.80645161290322 -17.4898230029038 -131.4898230029038 -9.80645161290323 -140.96774193548384 -9.80645161290323C-150.44566086806395 -9.80645161290323 -158.12903225806448 -17.4898230029038 -158.12903225806448 -26.967741935483872Z" style="fill:#FFFFFF;"/><path d="M-214.51612903225805 -117.85165011941213L-197.180607945104 -100.51612903225806L-214.51612903225805 -83.18060794510399L-231.85165011941214 -100.51612903225806Z"/><path d="M-165.48387096774192 -117.85165011941213L-148.14834988058786 -100.51612903225806L-165.48387096774192 -83.18060794510399L-182.81939205489599 -100.51612903225806Z"/><path d="M-214.51612903225805 -68.819392054896L-197.180607945104 -51.483870967741936L-214.51612903225805 -34.148349880587865L-231.85165011941214 -51.483870967741936Z"/><path d="M-165.48387096774192 -68.819392054896L-148.14834988058786 -51.483870967741936L-165.48387096774192 -34.148349880587865L-182.81939205489599 -51.483870967741936Z"/><path d="M-246.38709677419357 -125.03225806451613C-246.38709677419357 -129.09422332133616 -243.09422332133616 -132.38709677419354 -239.03225806451613 -132.38709677419354C-234.9702928076961 -132.38709677419354 -231.6774193548387 -129.09422332133616 -231.6774193548387 -125.03225806451613C-231.6774193548387 -120.97029280769608 -234.9702928076961 -117.6774193548387 -239.03225806451613 -117.6774193548387C-243.09422332133616 -117.6774193548387 -246.38709677419357 -120.97029280769608 -246.38709677419357 -125.03225806451613Z"/><path d="M-197.3548387096774 -125.03225806451613C-197.3548387096774 -129.09422332133616 -194.06196525682 -132.38709677419354 -190 -132.38709677419354C-185.93803474317997 -132.38709677419354 -182.64516129032256 -129.09422332133616 -182.64516129032256 -125.03225806451613C-182.64516129032256 -120.97029280769608 -185.93803474317997 -117.6774193548387 -190 -117.6774193548387C-194.06196525682 -117.6774193548387 -197.3548387096774 -120.97029280769608 -197.3548387096774 -125.03225806451613Z" style="fill:#FFFFFF;"/><path d="M-148.32258064516128 -125.03225806451613C-148.32258064516128 -129.09422332133616 -145.0297071923039 -132.38709677419354 -140.96774193548384 -132.38709677419354C-136.90577667866384 -132.38709677419354 -133.61290322580646 -129.09422332133616 -133.61290322580646 -125.03225806451613C-133.61290322580646 -120.97029280769608 -136.90577667866384 -117.6774193548387 -140.96774193548384 -117.6774193548387C-145.0297071923039 -117.6774193548387 -148.32258064516128 -120.97029280769608 -148.32258064516128 -125.03225806451613Z"/><path d="M-246.38709677419357 -76C-246.38709677419357 -80.06196525682003 -243.09422332133616 -83.35483870967742 -239.03225806451613 -83.35483870967742C-234.9702928076961 -83.35483870967742 -231.6774193548387 -80.06196525682003 -231.6774193548387 -76C-231.6774193548387 -71.93803474317997 -234.9702928076961 -68.64516129032258 -239.03225806451613 -68.64516129032258C-243.09422332133616 -68.64516129032258 -246.38709677419357 -71.93803474317997 -246.38709677419357 -76Z" style="fill:#FFFFFF;"/><path d="M-197.3548387096774 -76C-197.3548387096774 -80.06196525682003 -194.06196525682 -83.35483870967742 -190 -83.35483870967742C-185.93803474317997 -83.35483870967742 -182.64516129032256 -80.06196525682003 -182.64516129032256 -76C-182.64516129032256 -71.93803474317997 -185.93803474317997 -68.64516129032258 -190 -68.64516129032258C-194.06196525682 -68.64516129032258 -197.3548387096774 -71.93803474317997 -197.3548387096774 -76Z" style="fill:#FFFFFF;"/><path d="M-148.32258064516128 -76C-148.32258064516128 -80.06196525682003 -145.0297071923039 -83.35483870967742 -140.96774193548384 -83.35483870967742C-136.90577667866384 -83.35483870967742 -133.61290322580646 -80.06196525682003 -133.61290322580646 -76C-133.61290322580646 -71.93803474317997 -136.90577667866384 -68.64516129032258 -140.96774193548384 -68.64516129032258C-145.0297071923039 -68.64516129032258 -148.32258064516128 -71.93803474317997 -148.32258064516128 -76Z" style="fill:#FFFFFF;"/><path d="M-246.38709677419357 -26.967741935483872C-246.38709677419357 -31.029707192303896 -243.09422332133616 -34.322580645161295 -239.03225806451613 -34.322580645161295C-234.9702928076961 -34.322580645161295 -231.6774193548387 -31.029707192303896 -231.6774193548387 -26.967741935483872C-231.6774193548387 -22.90577667866384 -234.9702928076961 -19.612903225806452 -239.03225806451613 -19.612903225806452C-243.09422332133616 -19.612903225806452 -246.38709677419357 -22.90577667866384 -246.38709677419357 -26.967741935483872Z"/><path d="M-197.3548387096774 -26.967741935483872C-197.3548387096774 -31.029707192303896 -194.06196525682 -34.322580645161295 -190 -34.322580645161295C-185.93803474317997 -34.322580645161295 -182.64516129032256 -31.029707192303896 -182.64516129032256 -26.967741935483872C-182.64516129032256 -22.90577667866384 -185.93803474317997 -19.612903225806452 -190 -19.612903225806452C-194.06196525682 -19.612903225806452 -197.3548387096774 -22.90577667866384 -197.3548387096774 -26.967741935483872Z" style="fill:#FFFFFF;"/><path d="M-148.32258064516128 -26.967741935483872C-148.32258064516128 -31.029707192303896 -145.0297071923039 -34.322580645161295 -140.96774193548384 -34.322580645161295C-136.90577667866384 -34.322580645161295 -133.61290322580646 -31.029707192303896 -133.61290322580646 -26.967741935483872C-133.61290322580646 -22.90577667866384 -136.90577667866384 -19.612903225806452 -140.96774193548384 -19.612903225806452C-145.0297071923039 -19.612903225806452 -148.32258064516128 -22.90577667866384 -148.32258064516128 -26.967741935483872Z"/></g>
<g><path d="M-76 -125.03225806451613C-76 -139.92613067285623 -63.92613067285624 -152 -49.03225806451612 -152C-34.13838545617602 -152 -22.064516129032256 -139.92613067285623 -22.064516129032256 -125.03225806451613C-22.064516129032256 -110.13838545617601 -34.13838545617602 -98.06451612903224 -49.03225806451612 -98.06451612903224C-63.92613067285624 -98.06451612903224 -76 -110.13838545617601 -76 -125.03225806451613Z"/><path d="M-26.96774193548387 -125.03225806451613C-26.96774193548387 -139.92613067285623 -14.893872608340109 -152 0 -152C14.893872608340109 -152 26.96774193548387 -139.92613067285623 26.96774193548387 -125.03225806451613C26.96774193548387 -110.13838545617601 14.893872608340109 -98.06451612903224 0 -98.06451612903224C-14.893872608340109 -98.06451612903224 -26.96774193548387 -110.13838545617601 -26.96774193548387 -125.03225806451613Z"/><path d="M22.064516129032256 -125.03225806451613C22.064516129032256 -139.92613067285623 34.13838545617602 -152 49.03225806451612 -152C63.92613067285624 -152 76 -139.92613067285623 76 -125.03225806451613C76 -110.13838545617601 63.92613067285624 -98.06451612903224 49.03225806451612 -98.06451612903224C34.13838545617602 -98.06451612903224 22.064516129032256 -110.13838545617601 22.064516129032256 -125.03225806451613Z"/><path d="M-76 -76C-76 -90.8938726083401 -63.92613067285624 -102.96774193548387 -49.03225806451612 -102.96774193548387C-34.13838545617602 -102.96774193548387 -22.064516129032256 -90.8938726083401 -22.064516129032256 -76C-22.064516129032256 -61.106127391659896 -34.13838545617602 -49.03225806451612 -49.03225806451612 -49.03225806451612C-63.92613067285624 -49.03225806451612 -76 -61.106127391659896 -76 -76Z"/><path d="M-26.96774193548387 -76C-26.96774193548387 -90.8938726083401 -14.893872608340109 -102.96774193548387 0 -102.96774193548387C14.893872608340109 -102.96774193548387 26.96774193548387 -90.8938726083401 26.96774193548387 -76C26.96774193548387 -61.106127391659896 14.893872608340109 -49.03225806451612 0 -49.03225806451612C-14.893872608340109 -49.03225806451612 -26.96774193548387 -61.106127391659896 -26.96774193548387 -76Z"/><path d="M22.064516129032256 -76C22.064516129032256 -90.8938726083401 34.13838545617602 -102.96774193548387 49.03225806451612 -102.96774193548387C63.92613067285624 -102.96774193548387 76 -90.8938726083401 76 -76C76 -61.106127391659896 63.92613067285624 -49.03225806451612 49.03225806451612 -49.03225806451612C34.13838545617602 -49.03225806451612 22.064516129032256 -61.106127391659896 22.064516129032256 -76Z"/><path d="M-76 -26.967741935483872C-76 -41.86161454382398 -63.92613067285624 -53.93548387096774 -49.03225806451612 -53.93548387096774C-34.13838545617602 -53.93548387096774 -22.064516129032256 -41.86161454382398 -22.064516129032256 -26.967741935483872C-22.064516129032256 -12.073869327143758 -34.13838545617602 0 -49.03225806451612 0C-63.92613067285624 0 -76 -12.073869327143758 -76 -26.967741935483872Z"/><path d="M-26.96774193548387 -26.967741935483872C-26.96774193548387 -41.86161454382398 -14.893872608340109 -53.93548387096774 0 -53.93548387096774C14.893872608340109 -53.93548387096774 26.96774193548387 -41.86161454382398 26.96774193548387 -26.967741935483872C26.96774193548387 -12.073869327143758 14.893872608340109 0 0 0C-14.893872608340109 0 -26.96774193548387 -12.073869327143758 -26.96774193548387 -26.967741935483872Z"/><path d="M22.064516129032256 -26.967741935483872C22.064516129032256 -41.86161454382398 34.13838545617602 -53.93548387096774 49.03225806451612 -53.93548387096774C63.92613067285624 -53.93548387096774 76 -41.86161454382398 76 -26.967741935483872C76 -12.073869327143758 63.92613067285624 0 49.03225806451612 0C34.13838545617602 0 22.064516129032256 -12.073869327143758 22.064516129032256 -26.967741935483872Z"/><path d="M-66.19354838709677 -125.03225806451613C-66.19354838709677 -134.51017699709618 -58.510176997096195 -142.19354838709677 -49.03225806451612 -142.19354838709677C-39.554339131936054 -142.19354838709677 -31.87096774193548 -134.51017699709618 -31.87096774193548 -125.03225806451613C-31.87096774193548 -115.55433913193605 -39.554339131936054 -107.87096774193547 -49.03225806451612 -107.87096774193547C-58.510176997096195 -107.87096774193547 -66.19354838709677 -115.55433913193605 -66.19354838709677 -125.03225806451613Z" style="fill:#FFFFFF;"/><path d="M-17.161290322580644 -125.03225806451613C-17.161290322580644 -134.51017699709618 -9.477918932580069 -142.19354838709677 0 -142.19354838709677C9.477918932580069 -142.19354838709677 17.161290322580644 -134.51017699709618 17.161290322580644 -125.03225806451613C17.161290322580644 -115.55433913193605 9.477918932580069 -107.87096774193547 0 -107.87096774193547C-9.477918932580069 -107.87096774193547 -17.161290322580644 -115.55433913193605 -17.161290322580644 -125.03225806451613Z" style="fill:#FFFFFF;"/><path d="M31.87096774193548 -125.03225806451613C31.87096774193548 -134.51017699709618 39.554339131936054 -142.19354838709677 49.03225806451612 -142.19354838709677C58.510176997096195 -142.19354838709677 66.19354838709677 -134.51017699709618 66.19354838709677 -125.03225806451613C66.19354838709677 -115.55433913193605 58.510176997096195 -107.87096774193547 49.03225806451612 -107.87096774193547C39.554339131936054 -107.87096774193547 31.87096774193548 -115.55433913193605 31.87096774193548 -125.03225806451613Z" style="fill:#FFFFFF;"/><path d="M-66.19354838709677 -76C-66.19354838709677 -85.47791893258007 -58.510176997096195 -93.16129032258064 -49.03225806451612 -93.16129032258064C-39.554339131936054 -93.16129032258064 -31.87096774193548 -85.47791893258007 -31.87096774193548 -76C-31.87096774193548 -66.52208106741992 -39.554339131936054 -58.83870967741935 -49.03225806451612 -58.83870967741935C-58.510176997096195 -58.83870967741935 -66.19354838709677 -66.52208106741992 -66.19354838709677 -76Z" style="fill:#FFFFFF;"/><path d="M-17.161290322580644 -76C-17.161290322580644 -85.47791893258007 -9.477918932580069 -93.16129032258064 0 -93.16129032258064C9.477918932580069 -93.16129032258064 17.161290322580644 -85.47791893258007 17.161290322580644 -76C17.161290322580644 -66.52208106741992 9.477918932580069 -58.83870967741935 0 -58.83870967741935C-9.477918932580069 -58.83870967741935 -17.161290322580644 -66.52208106741992 -17.161290322580644 -76Z" style="fill:#FFFFFF;"/><path d="M31.87096774193548 -76C31.87096774193548 -85.47791893258007 39.554339131936054 -93.16129032258064 49.03225806451612 -93.16129032258064C58.510176997096195 -93.16129032258064 66.19354838709677 -85.47791893258007 66.19354838709677 -76C66.19354838709677 -66.52208106741992 58.510176997096195 -58.83870967741935 49.03225806451612 -58.83870967741935C39.554339131936054 -58.83870967741935 31.87096774193548 -66.52208106741992 31.87096774193548 -76Z" style="fill:#FFFFFF;"/><path d="M-66.19354838709677 -26.967741935483872C-66.19354838709677 -36.445660868063946 -58.510176997096195 -44.12903225806451 -49.03225806451612 -44.12903225806451C-39.554339131936054 -44.12903225806451 -31.87096774193548 -36.445660868063946 -31.87096774193548 -26.967741935483872C-31.87096774193548 -17.4898230029038 -39.554339131936054 -9.80645161290323 -49.03225806451612 -9.80645161290323C-58.510176997096195 -9.80645161290323 -66.19354838709677 -17.4898230029038 -66.19354838709677 -26.967741935483872Z" style="fill:#FFFFFF;"/><path d="M-17.161290322580644 -26.967741935483872C-17.161290322580644 -36.445660868063946 -9.477918932580069 -44.12903225806451 0 -44.12903225806451C9.477918932580069 -44.12903225806451 17.161290322580644 -36.445660868063946 17.161290322580644 -26.967741935483872C17.161290322580644 -17.4898230029038 9.477918932580069 -9.80645161290323 0 -9.80645161290323C-9.477918932580069 -9.80645161290323 -17.161290322580644 -17.4898230029038 -17.161290322580644 -26.967741935483872Z" style="fill:#FFFFFF;"/><path d="M31.87096774193548 -26.967741935483872C31.87096774193548 -36.445660868063946 39.554339131936054 -44.12903225806451 49.03225806451612 -44.12903225806451C58.510176997096195 -44.12903225806451 66.19354838709677 -36.445660868063946 66.19354838709677 -26.967741935483872C66.19354838709677 -17.4898230029038 58.510176997096195 -9.80645161290323 49.03225806451612 -9.80645161290323C39.554339131936054 -9.80645161290323 31.87096774193548 -17.4898230029038 31.87096774193548 -26.967741935483872Z" style="fill:#FFFFFF;"/><path d="M-24.51612903225806 -117.85165011941213L-7.180607945103995 -100.51612903225806L-24.51612903225806 -83.18060794510399L-41.851650119412135 -100.51612903225806Z"/><path d="M24.51612903225806 -117.85165011941213L41.851650119412135 -100.51612903225806L24.51612903225806 -83.18060794510399L7.180607945103995 -100.51612903225806Z"/><path d="M-24.51612903225806 -68.819392054896L-7.180607945103995 -51.483870967741936L-24.51612903225806 -34.148349880587865L-41.851650119412135 -51.483870967741936Z"/><path d="M24.51612903225806 -68.819392054896L41.851650119412135 -51.483870967741936L24.51612903225806 -34.148349880587865L7.180607945103995 -51.483870967741936Z"/><path d="M-56.387096774193544 -125.03225806451613C-56.387096774193544 -129.09422332133616 -53.09422332133615 -132.38709677419354 -49.03225806451612 -132.38709677419354C-44.9702928076961 -132.38709677419354 -41.677419354838705 -129.09422332133616 -41.677419354838705 -125.03225806451613C-41.677419354838705 -120.97029280769608 -44.9702928076961 -117.6774193548387 -49.03225806451612 -117.6774193548387C-53.09422332133615 -117.6774193548387 -56.387096774193544 -120.97029280769608 -56.387096774193544 -125.03225806451613Z" style="fill:#FFFFFF;"/><path d="M-7.354838709677419 -125.03225806451613C-7.354838709677419 -129.09422332133616 -4.06196525682003 -132.38709677419354 0 -132.38709677419354C4.06196525682003 -132.38709677419354 7.354838709677419 -129.09422332133616 7.354838709677419 -125.03225806451613C7.354838709677419 -120.97029280769608 4.06196525682003 -117.6774193548387 0 -117.6774193548387C-4.06196525682003 -117.6774193548387 -7.354838709677419 -120.97029280769608 -7.354838709677419 -125.03225806451613Z" style="fill:#FFFFFF;"/><path d="M41.677419354838705 -125.03225806451613C41.677419354838705 -129.09422332133616 44.9702928076961 -132.38709677419354 49.03225806451612 -132.38709677419354C53.09422332133615 -132.38709677419354 56.387096774193544 -129.09422332133616 56.387096774193544 -125.03225806451613C56.387096774193544 -120.97029280769608 53.09422332133615 -117.6774193548387 49.03225806451612 -117.6774193548387C44.9702928076961 -117.6774193548387 41.677419354838705 -120.97029280769608 41.677419354838705 -125.03225806451613Z" style="fill:#FFFFFF;"/><path d="M-56.387096774193544 -76C-56.387096774193544 -80.06196525682003 -53.09422332133615 -83.35483870967742 -49.03225806451612 -83.35483870967742C-44.9702928076961 -83.35483870967742 -41.677419354838705 -80.06196525682003 -41.677419354838705 -76C-41.677419354838705 -71.93803474317997 -44.9702928076961 -68.64516129032258 -49.03225806451612 -68.64516129032258C-53.09422332133615 -68.64516129032258 -56.387096774193544 -71.93803474317997 -56.387096774193544 -76Z" style="fill:#FFFFFF;"/><path d="M-7.354838709677419 -76C-7.354838709677419 -80.06196525682003 -4.06196525682003 -83.35483870967742 0 -83.35483870967742C4.06196525682003 -83.35483870967742 7.354838709677419 -80.06196525682003 7.354838709677419 -76C7.354838709677419 -71.93803474317997 4.06196525682003 -68.64516129032258 0 -68.64516129032258C-4.06196525682003 -68.64516129032258 -7.354838709677419 -71.93803474317997 -7.354838709677419 -76Z"/><path d="M41.677419354838705 -76C41.677419354838705 -80.06196525682003 44.9702928076961 -83.35483870967742 49.03225806451612 -83.35483870967742C53.09422332133615 -83.35483870967742 56.387096774193544 -80.06196525682003 56.387096774193544 -76C56.387096774193544 -71.93803474317997 53.09422332133615 -68.64516129032258 49.03225806451612 -68.64516129032258C44.9702928076961 -68.64516129032258 41.677419354838705 -71.93803474317997 41.677419354838705 -76Z" style="fill:#FFFFFF;"/><path d="M-56.387096774193544 -26.967741935483872C-56.387096774193544 -31.029707192303896 -53.09422332133615 -34.322580645161295 -49.03225806451612 -34.322580645161295C-44.9702928076961 -34.322580645161295 -41.677419354838705 -31.029707192303896 -41.677419354838705 -26.967741935483872C-41.677419354838705 -22.90577667866384 -44.9702928076961 -19.612903225806452 -49.03225806451612 -19.612903225806452C-53.09422332133615 -19.612903225806452 -56.387096774193544 -22.90577667866384 -56.387096774193544 -26.967741935483872Z" style="fill:#FFFFFF;"/><path d="M-7.354838709677419 -26.967741935483872C-7.354838709677419 -31.029707192303896 -4.06196525682003 -34.322580645161295 0 -34.322580645161295C4.06196525682003 -34.322580645161295 7.354838709677419 -31.029707192303896 7.354838709677419 -26.967741935483872C7.354838709677419 -22.90577667866384 4.06196525682003 -19.612903225806452 0 -19.612903225806452C-4.06196525682003 -19.612903225806452 -7.354838709677419 -22.90577667866384 -7.354838709677419 -26.967741935483872Z" style="fill:#FFFFFF;"/><path d="M41.677419354838705 -26.967741935483872C41.677419354838705 -31.029707192303896 44.9702928076961 -34.322580645161295 49.03225806451612 -34.322580645161295C53.09422332133615 -34.322580645161295 56.387096774193544 -31.029707192303896 56.387096774193544 -26.967741935483872C56.387096774193544 -22.90577667866384 53.09422332133615 -19.612903225806452 49.03225806451612 -19.612903225806452C44.9702928076961 -19.612903225806452 41.677419354838705 -22.90577667866384 41.677419354838705 -26.967741935483872Z" style="fill:#FFFFFF;"/></g>
<g><path d="M114 -125.03225806451613C114 -139.92613067285623 126.07386932714375 -152 140.96774193548384 -152C155.86161454382398 -152 167.93548387096774 -139.92613067285623 167.93548387096774 -125.03225806451613C167.93548387096774 -110.13838545617601 155.86161454382398 -98.06451612903224 140.96774193548384 -98.06451612903224C126.07386932714375 -98.06451612903224 114 -110.13838545617601 114 -125.03225806451613Z"/><path d="M163.03225806451613 -125.03225806451613C163.03225806451613 -139.92613067285623 175.1061273916599 -152 190 -152C204.8938726083401 -152 216.96774193548384 -139.92613067285623 216.96774193548384 -125.03225806451613C216.96774193548384 -110.13838545617601 204.8938726083401 -98.06451612903224 190 -98.06451612903224C175.1061273916599 -98.06451612903224 163.03225806451613 -110.13838545617601 163.03225806451613 -125.03225806451613Z"/><path d="M212.06451612903226 -125.03225806451613C212.06451612903226 -139.92613067285623 224.138385456176 -152 239.03225806451613 -152C253.9261306728562 -152 266 -139.92613067285623 266 -125.03225806451613C266 -110.13838545617601 253.9261306728562 -98.06451612903224 239.03225806451613 -98.06451612903224C224.138385456176 -98.06451612903224 212.06451612903226 -110.13838545617601 212.06451612903226 -125.03225806451613Z"/><path d="M114 -76C114 -90.8938726083401 126.07386932714375 -102.96774193548387 140.96774193548384 -102.96774193548387C155.86161454382398 -102.96774193548387 167.93548387096774 -90.8938726083401 167.93548387096774 -76C167.93548387096774 -61.106127391659896 155.86161454382398 -49.03225806451612 140.96774193548384 -49.03225806451612C126.07386932714375 -49.03225806451612 114 -61.106127391659896 114 -76Z"/><path d="M163.03225806451613 -76C163.03225806451613 -90.8938726083401 175.1061273916599 -102.96774193548387 190 -102.96774193548387C204.8938726083401 -102.96774193548387 216.96774193548384 -90.8938726083401 216.96774193548384 -76C216.96774193548384 -61.106127391659896 204.8938726083401 -49.03225806451612 190 -49.03225806451612C175.1061273916599 -49.03225806451612 163.03225806451613 -61.106127391659896 163.03225806451613 -76Z"/><path d="M212.06451612903226 -76C212.06451612903226 -90.8938726083401 224.138385456176 -102.96774193548387 239.03225806451613 -102.96774193548387C253.9261306728562 -102.96774193548387 266 -90.8938726083401 266 -76C266 -61.106127391659896 253.9261306728562 -49.03225806451612 239.03225806451613 -49.03225806451612C224.138385456176 -49.03225806451612 212.06451612903226 -61.106127391659896 212.06451612903226 -76Z"/><path d="M114 -26.967741935483872C114 -41.86161454382398 126.07386932714375 -53.93548387096774 140.96774193548384 -53.93548387096774C155.86161454382398 -53.93548387096774 167.93548387096774 -41.86161454382398 167.93548387096774 -26.967741935483872C167.93548387096774 -12.073869327143758 155.86161454382398 0 140.96774193548384 0C126.07386932714375 0 114 -12.073869327143758 114 -26.967741935483872Z"/><path d="M163.03225806451613 -26.967741935483872C163.03225806451613 -41.86161454382398 175.1061273916599 -53.93548387096774 190 -53.93548387096774C204.8938726083401 -53.93548387096774 216.96774193548384 -41.86161454382398 216.96774193548384 -26.967741935483872C216.96774193548384 -12.073869327143758 204.8938726083401 0 190 0C175.1061273916599 0 163.03225806451613 -12.073869327143758 163.03225806451613 -26.967741935483872Z"/><path d="M212.06451612903226 -26.967741935483872C212.06451612903226 -41.86161454382398 224.138385456176 -53.93548387096774 239.03225806451613 -53.93548387096774C253.9261306728562 -53.93548387096774 266 -41.86161454382398 266 -26.967741935483872C266 -12.073869327143758 253.9261306728562 0 239.03225806451613 0C224.138385456176 0 212.06451612903226 -12.073869327143758 212.06451612903226 -26.967741935483872Z"/><path d="M123.80645161290322 -125.03225806451613C123.80645161290322 -134.51017699709618 131.4898230029038 -142.19354838709677 140.96774193548384 -142.19354838709677C150.44566086806395 -142.19354838709677 158.12903225806448 -134.51017699709618 158.12903225806448 -125.03225806451613C158.12903225806448 -115.55433913193605 150.44566086806395 -107.87096774193547 140.96774193548384 -107.87096774193547C131.4898230029038 -107.87096774193547 123.80645161290322 -115.55433913193605 123.80645161290322 -125.03225806451613Z" style="fill:#FFFFFF;"/><path d="M172.83870967741936 -125.03225806451613C172.83870967741936 -134.51017699709618 180.52208106741992 -142.19354838709677 190 -142.19354838709677C199.47791893258005 -142.19354838709677 207.16129032258064 -134.51017699709618 207.16129032258064 -125.03225806451613C207.16129032258064 -115.55433913193605 199.47791893258005 -107.87096774193547 190 -107.87096774193547C180.52208106741992 -107.87096774193547 172.83870967741936 -115.55433913193605 172.83870967741936 -125.03225806451613Z" style="fill:#FFFFFF;"/><path d="M221.8709677419355 -125.03225806451613C221.8709677419355 -134.51017699709618 229.55433913193605 -142.19354838709677 239.03225806451613 -142.19354838709677C248.5101769970962 -142.19354838709677 256.19354838709677 -134.51017699709618 256.19354838709677 -125.03225806451613C256.19354838709677 -115.55433913193605 248.5101769970962 -107.87096774193547 239.03225806451613 -107.87096774193547C229.55433913193605 -107.87096774193547 221.8709677419355 -115.55433913193605 221.8709677419355 -125.03225806451613Z" style="fill:#FFFFFF;"/><path d="M123.80645161290322 -76C123.80645161290322 -85.47791893258007 131.4898230029038 -93.16129032258064 140.96774193548384 -93.16129032258064C150.44566086806395 -93.16129032258064 158.12903225806448 -85.47791893258007 158.12903225806448 -76C158.12903225806448 -66.52208106741992 150.44566086806395 -58.83870967741935 140.96774193548384 -58.83870967741935C131.4898230029038 -58.83870967741935 123.80645161290322 -66.52208106741992 123.80645161290322 -76Z" style="fill:#FFFFFF;"/><path d="M172.83870967741936 -76C172.83870967741936 -85.47791893258007 180.52208106741992 -93.16129032258064 190 -93.16129032258064C199.47791893258005 -93.16129032258064 207.16129032258064 -85.47791893258007 207.16129032258064 -76C207.16129032258064 -66.52208106741992 199.47791893258005 -58.83870967741935 190 -58.83870967741935C180.52208106741992 -58.83870967741935 172.83870967741936 -66.52208106741992 172.83870967741936 -76Z" style="fill:#FFFFFF;"/><path d="M221.8709677419355 -76C221.8709677419355 -85.47791893258007 229.55433913193605 -93.16129032258064 239.03225806451613 -93.16129032258064C248.5101769970962 -93.16129032258064 256.19354838709677 -85.47791893258007 256.19354838709677 -76C256.19354838709677 -66.52208106741992 248.5101769970962 -58.83870967741935 239.03225806451613 -58.83870967741935C229.55433913193605 -58.83870967741935 221.8709677419355 -66.52208106741992 221.8709677419355 -76Z" style="fill:#FFFFFF;"/><path d="M123.80645161290322 -26.967741935483872C123.80645161290322 -36.445660868063946 131.4898230029038 -44.12903225806451 140.96774193548384 -44.12903225806451C150.44566086806395 -44.12903225806451 158.12903225806448 -36.445660868063946 158.12903225806448 -26.967741935483872C158.12903225806448 -17.4898230029038 150.44566086806395 -9.80645161290323 140.96774193548384 -9.80645161290323C131.4898230029038 -9.80645161290323 123.80645161290322 -17.4898230029038 123.80645161290322 -26.967741935483872Z" style="fill:#FFFFFF;"/><path d="M172.83870967741936 -26.967741935483872C172.83870967741936 -36.445660868063946 180.52208106741992 -44.12903225806451 190 -44.12903225806451C199.47791893258005 -44.12903225806451 207.16129032258064 -36.445660868063946 207.16129032258064 -26.967741935483872C207.16129032258064 -17.4898230029038 199.47791893258005 -9.80645161290323 190 -9.80645161290323C180.52208106741992 -9.80645161290323 172.83870967741936 -17.4898230029038 172.83870967741936 -26.967741935483872Z" style="fill:#FFFFFF;"/><path d="M221.8709677419355 -26.967741935483872C221.8709677419355 -36.445660868063946 229.55433913193605 -44.12903225806451 239.03225806451613 -44.12903225806451C248.5101769970962 -44.12903225806451 256.19354838709677 -36.445660868063946 256.19354838709677 -26.967741935483872C256.19354838709677 -17.4898230029038 248.5101769970962 -9.80645161290323 239.03225806451613 -9.80645161290323C229.55433913193605 -9.80645161290323 221.8709677419355 -17.4898230029038 221.8709677419355 -26.967741935483872Z" style="fill:#FFFFFF;"/><path d="M165.48387096774192 -117.85165011941213L182.81939205489599 -100.51612903225806L165.48387096774192 -83.18060794510399L148.14834988058786 -100.51612903225806Z"/><path d="M214.51612903225805 -117.85165011941213L231.85165011941214 -100.51612903225806L214.51612903225805 -83.18060794510399L197.180607945104 -100.51612903225806Z"/><path d="M165.48387096774192 -68.819392054896L182.81939205489599 -51.483870967741936L165.48387096774192 -34.148349880587865L148.14834988058786 -51.483870967741936Z"/><path d="M214.51612903225805 -68.819392054896L231.85165011941214 -51.483870967741936L214.51612903225805 -34.148349880587865L197.180607945104 -51.483870967741936Z"/><path d="M133.61290322580646 -125.03225806451613C133.61290322580646 -129.09422332133616 136.90577667866384 -132.38709677419354 140.96774193548384 -132.38709677419354C145.0297071923039 -132.38709677419354 148.32258064516128 -129.09422332133616 148.32258064516128 -125.03225806451613C148.32258064516128 -120.97029280769608 145.0297071923039 -117.6774193548387 140.96774193548384 -117.6774193548387C136.90577667866384 -117.6774193548387 133.61290322580646 -120.97029280769608 133.61290322580646 -125.03225806451613Z"/><path d="M182.64516129032256 -125.03225806451613C182.64516129032256 -129.09422332133616 185.93803474317997 -132.38709677419354 190 -132.38709677419354C194.06196525682 -132.38709677419354 197.3548387096774 -129.09422332133616 197.3548387096774 -125.03225806451613C197.3548387096774 -120.97029280769608 194.06196525682 -117.6774193548387 190 -117.6774193548387C185.93803474317997 -117.6774193548387 182.64516129032256 -120.97029280769608 182.64516129032256 -125.03225806451613Z" style="fill:#FFFFFF;"/><path d="M231.6774193548387 -125.03225806451613C231.6774193548387 -129.09422332133616 234.9702928076961 -132.38709677419354 239.03225806451613 -132.38709677419354C243.09422332133616 -132.38709677419354 246.38709677419357 -129.09422332133616 246.38709677419357 -125.03225806451613C246.38709677419357 -120.97029280769608 243.09422332133616 -117.6774193548387 239.03225806451613 -117.6774193548387C234.9702928076961 -117.6774193548387 231.6774193548387 -120.97029280769608 231.6774193548387 -125.03225806451613Z" style="fill:#FFFFFF;"/><path d="M133.61290322580646 -76C133.61290322580646 -80.06196525682003 136.90577667866384 -83.35483870967742 140.96774193548384 -83.35483870967742C145.0297071923039 -83.35483870967742 148.32258064516128 -80.06196525682003 148.32258064516128 -76C148.32258064516128 -71.93803474317997 145.0297071923039 -68.64516129032258 140.96774193548384 -68.64516129032258C136.90577667866384 -68.64516129032258 133.61290322580646 -71.93803474317997 133.61290322580646 -76Z" style="fill:#FFFFFF;"/><path d="M182.64516129032256 -76C182.64516129032256 -80.06196525682003 185.93803474317997 -83.35483870967742 190 -83.35483870967742C194.06196525682 -83.35483870967742 197.3548387096774 -80.06196525682003 197.3548387096774 -76C197.3548387096774 -71.93803474317997 194.06196525682 -68.64516129032258 190 -68.64516129032258C185.93803474317997 -68.64516129032258 182.64516129032256 -71.93803474317997 182.64516129032256 -76Z"/><path d="M231.6774193548387 -76C231.6774193548387 -80.06196525682003 234.9702928076961 -83.35483870967742 239.03225806451613 -83.35483870967742C243.09422332133616 -83.35483870967742 246.38709677419357 -80.06196525682003 246.38709677419357 -76C246.38709677419357 -71.93803474317997 243.09422332133616 -68.64516129032258 239.03225806451613 -68.64516129032258C234.9702928076961 -68.64516129032258 231.6774193548387 -71.93803474317997 231.6774193548387 -76Z" style="fill:#FFFFFF;"/><path d="M133.61290322580646 -26.967741935483872C133.61290322580646 -31.029707192303896 136.90577667866384 -34.322580645161295 140.96774193548384 -34.322580645161295C145.0297071923039 -34.322580645161295 148.32258064516128 -31.029707192303896 148.32258064516128 -26.967741935483872C148.32258064516128 -22.90577667866384 145.0297071923039 -19.612903225806452 140.96774193548384 -19.612903225806452C136.90577667866384 -19.612903225806452 133.61290322580646 -22.90577667866384 133.61290322580646 -26.967741935483872Z" style="fill:#FFFFFF;"/><path d="M182.64516129032256 -26.967741935483872C182.64516129032256 -31.029707192303896 185.93803474317997 -34.322580645161295 190 -34.322580645161295C194.06196525682 -34.322580645161295 197.3548387096774 -31.029707192303896 197.3548387096774 -26.967741935483872C197.3548387096774 -22.90577667866384 194.06196525682 -19.612903225806452 190 -19.612903225806452C185.93803474317997 -19.612903225806452 182.64516129032256 -22.90577667866384 182.64516129032256 -26.967741935483872Z" style="fill:#FFFFFF;"/><path d="M231.6774193548387 -26.967741935483872C231.6774193548387 -31.029707192303896 234.9702928076961 -34.322580645161295 239.03225806451613 -34.322580645161295C243.09422332133616 -34.322580645161295 246.38709677419357 -31.029707192303896 246.38709677419357 -26.967741935483872C246.38709677419357 -22.90577667866384 243.09422332133616 -19.612903225806452 239.03225806451613 -19.612903225806452C234.9702928076961 -19.612903225806452 231.6774193548387 -22.90577667866384 231.6774193548387 -26.967741935483872Z"/></g>
<g><path d="M-76 64.96774193548386C-76 50.073869327143754 -63.92613067285624 38 -49.03225806451612 38C-34.13838545617602 38 -22.064516129032256 50.073869327143754 -22.064516129032256 64.96774193548386C-22.064516129032256 79.86161454382399 -34.13838545617602 91.93548387096774 -49.03225806451612 91.93548387096774C-63.92613067285624 91.93548387096774 -76 79.86161454382399 -76 64.96774193548386Z"/><path d="M-26.96774193548387 64.96774193548386C-26.96774193548387 50.073869327143754 -14.893872608340109 38 0 38C14.893872608340109 38 26.96774193548387 50.073869327143754 26.96774193548387 64.96774193548386C26.96774193548387 79.86161454382399 14.893872608340109 91.93548387096774 0 91.93548387096774C-14.893872608340109 91.93548387096774 -26.96774193548387 79.86161454382399 -26.96774193548387 64.96774193548386Z"/><path d="M22.064516129032256 64.96774193548386C22.064516129032256 50.073869327143754 34.13838545617602 38 49.03225806451612 38C63.92613067285624 38 76 50.073869327143754 76 64.96774193548386C76 79.86161454382399 63.92613067285624 91.93548387096774 49.03225806451612 91.93548387096774C34.13838545617602 91.93548387096774 22.064516129032256 79.86161454382399 22.064516129032256 64.96774193548386Z"/><path d="M-76 114C-76 99.1061273916599 -63.92613067285624 87.03225806451614 -49.03225806451612 87.03225806451614C-34.13838545617602 87.03225806451614 -22.064516129032256 99.1061273916599 -22.064516129032256 114C-22.064516129032256 128.8938726083401 -34.13838545617602 140.96774193548384 -49.03225806451612 140.96774193548384C-63.92613067285624 140.96774193548384 -76 128.8938726083401 -76 114Z"/><path d="M-26.96774193548387 114C-26.96774193548387 99.1061273916599 -14.893872608340109 87.03225806451614 0 87.03225806451614C14.893872608340109 87.03225806451614 26.96774193548387 99.1061273916599 26.96774193548387 114C26.96774193548387 128.8938726083401 14.893872608340109 140.96774193548384 0 140.96774193548384C-14.893872608340109 140.96774193548384 -26.96774193548387 128.8938726083401 -26.96774193548387 114Z"/><path d="M22.064516129032256 114C22.064516129032256 99.1061273916599 34.13838545617602 87.03225806451614 49.03225806451612 87.03225806451614C63.92613067285624 87.03225806451614 76 99.1061273916599 76 114C76 128.8938726083401 63.92613067285624 140.96774193548384 49.03225806451612 140.96774193548384C34.13838545617602 140.96774193548384 22.064516129032256 128.8938726083401 22.064516129032256 114Z"/><path d="M-76 163.03225806451613C-76 148.138385456176 -63.92613067285624 136.06451612903226 -49.03225806451612 136.06451612903226C-34.13838545617602 136.06451612903226 -22.064516129032256 148.138385456176 -22.064516129032256 163.03225806451613C-22.064516129032256 177.9261306728562 -34.13838545617602 190 -49.03225806451612 190C-63.92613067285624 190 -76 177.9261306728562 -76 163.03225806451613Z"/><path d="M-26.96774193548387 163.03225806451613C-26.96774193548387 148.138385456176 -14.893872608340109 136.06451612903226 0 136.06451612903226C14.893872608340109 136.06451612903226 26.96774193548387 148.138385456176 26.96774193548387 163.03225806451613C26.96774193548387 177.9261306728562 14.893872608340109 190 0 190C-14.893872608340109 190 -26.96774193548387 177.9261306728562 -26.96774193548387 163.03225806451613Z"/><path d="M22.064516129032256 163.03225806451613C22.064516129032256 148.138385456176 34.13838545617602 136.06451612903226 49.03225806451612 136.06451612903226C63.92613067285624 136.06451612903226 76 148.138385456176 76 163.03225806451613C76 177.9261306728562 63.92613067285624 190 49.03225806451612 190C34.13838545617602 190 22.064516129032256 177.9261306728562 22.064516129032256 163.03225806451613Z"/><path d="M-66.19354838709677 64.96774193548386C-66.19354838709677 55.4898230029038 -58.510176997096195 47.80645161290322 -49.03225806451612 47.80645161290322C-39.554339131936054 47.80645161290322 -31.87096774193548 55.4898230029038 -31.87096774193548 64.96774193548386C-31.87096774193548 74.44566086806394 -39.554339131936054 82.1290322580645 -49.03225806451612 82.1290322580645C-58.510176997096195 82.1290322580645 -66.19354838709677 74.44566086806394 -66.19354838709677 64.96774193548386Z" style="fill:#FFFFFF;"/><path d="M-17.161290322580644 64.96774193548386C-17.161290322580644 55.4898230029038 -9.477918932580069 47.80645161290322 0 47.80645161290322C9.477918932580069 47.80645161290322 17.161290322580644 55.4898230029038 17.161290322580644 64.96774193548386C17.161290322580644 74.44566086806394 9.477918932580069 82.1290322580645 0 82.1290322580645C-9.477918932580069 82.1290322580645 -17.161290322580644 74.44566086806394 -17.161290322580644 64.96774193548386Z" style="fill:#FFFFFF;"/><path d="M31.87096774193548 64.96774193548386C31.87096774193548 55.4898230029038 39.554339131936054 47.80645161290322 49.03225806451612 47.80645161290322C58.510176997096195 47.80645161290322 66.19354838709677 55.4898230029038 66.19354838709677 64.96774193548386C66.19354838709677 74.44566086806394 58.510176997096195 82.1290322580645 49.03225806451612 82.1290322580645C39.554339131936054 82.1290322580645 31.87096774193548 74.44566086806394 31.87096774193548 64.96774193548386Z" style="fill:#FFFFFF;"/><path d="M-66.19354838709677 114C-66.19354838709677 104.52208106741993 -58.510176997096195 96.83870967741935 -49.03225806451612 96.83870967741935C-39.554339131936054 96.83870967741935 -31.87096774193548 104.52208106741993 -31.87096774193548 114C-31.87096774193548 123.47791893258005 -39.554339131936054 131.16129032258064 -49.03225806451612 131.16129032258064C-58.510176997096195 131.16129032258064 -66.19354838709677 123.47791893258005 -66.19354838709677 114Z" style="fill:#FFFFFF;"/><path d="M-17.161290322580644 114C-17.161290322580644 104.52208106741993 -9.477918932580069 96.83870967741935 0 96.83870967741935C9.477918932580069 96.83870967741935 17.161290322580644 104.52208106741993 17.161290322580644 114C17.161290322580644 123.47791893258005 9.477918932580069 131.16129032258064 0 131.16129032258064C-9.477918932580069 131.16129032258064 -17.161290322580644 123.47791893258005 -17.161290322580644 114Z" style="fill:#FFFFFF;"/><path d="M31.87096774193548 114C31.87096774193548 104.52208106741993 39.554339131936054 96.83870967741935 49.03225806451612 96.83870967741935C58.510176997096195 96.83870967741935 66.19354838709677 104.52208106741993 66.19354838709677 114C66.19354838709677 123.47791893258005 58.510176997096195 131.16129032258064 49.03225806451612 131.16129032258064C39.554339131936054 131.16129032258064 31.87096774193548 123.47791893258005 31.87096774193548 114Z" style="fill:#FFFFFF;"/><path d="M-66.19354838709677 163.03225806451613C-66.19354838709677 153.55433913193605 -58.510176997096195 145.8709677419355 -49.03225806451612 145.8709677419355C-39.554339131936054 145.8709677419355 -31.87096774193548 153.55433913193605 -31.87096774193548 163.03225806451613C-31.87096774193548 172.5101769970962 -39.554339131936054 180.19354838709677 -49.03225806451612 180.19354838709677C-58.510176997096195 180.19354838709677 -66.19354838709677 172.5101769970962 -66.19354838709677 163.03225806451613Z" style="fill:#FFFFFF;"/><path d="M-17.161290322580644 163.03225806451613C-17.161290322580644 153.55433913193605 -9.477918932580069 145.8709677419355 0 145.8709677419355C9.477918932580069 145.8709677419355 17.161290322580644 153.55433913193605 17.161290322580644 163.03225806451613C17.161290322580644 172.5101769970962 9.477918932580069 180.19354838709677 0 180.19354838709677C-9.477918932580069 180.19354838709677 -17.161290322580644 172.5101769970962 -17.161290322580644 163.03225806451613Z" style="fill:#FFFFFF;"/><path d="M31.87096774193548 163.03225806451613C31.87096774193548 153.55433913193605 39.554339131936054 145.8709677419355 49.03225806451612 145.8709677419355C58.510176997096195 145.8709677419355 66.19354838709677 153.55433913193605 66.19354838709677 163.03225806451613C66.19354838709677 172.5101769970962 58.510176997096195 180.19354838709677 49.03225806451612 180.19354838709677C39.554339131936054 180.19354838709677 31.87096774193548 172.5101769970962 31.87096774193548 163.03225806451613Z" style="fill:#FFFFFF;"/><path d="M-24.51612903225806 72.14834988058784L-7.180607945103995 89.48387096774192L-24.51612903225806 106.819392054896L-41.851650119412135 89.48387096774192Z"/><path d="M24.51612903225806 72.14834988058784L41.851650119412135 89.48387096774192L24.51612903225806 106.819392054896L7.180607945103995 89.48387096774192Z"/><path d="M-24.51612903225806 121.18060794510399L-7.180607945103995 138.51612903225805L-24.51612903225806 155.85165011941214L-41.851650119412135 138.51612903225805Z"/><path d="M24.51612903225806 121.18060794510399L41.851650119412135 138.51612903225805L24.51612903225806 155.85165011941214L7.180607945103995 138.51612903225805Z"/><path d="M-56.387096774193544 64.96774193548386C-56.387096774193544 60.90577667866384 -53.09422332133615 57.612903225806456 -49.03225806451612 57.612903225806456C-44.9702928076961 57.612903225806456 -41.677419354838705 60.90577667866384 -41.677419354838705 64.96774193548386C-41.677419354838705 69.0297071923039 -44.9702928076961 72.32258064516128 -49.03225806451612 72.32258064516128C-53.09422332133615 72.32258064516128 -56.387096774193544 69.0297071923039 -56.387096774193544 64.96774193548386Z"/><path d="M-7.354838709677419 64.96774193548386C-7.354838709677419 60.90577667866384 -4.06196525682003 57.612903225806456 0 57.612903225806456C4.06196525682003 57.612903225806456 7.354838709677419 60.90577667866384 7.354838709677419 64.96774193548386C7.354838709677419 69.0297071923039 4.06196525682003 72.32258064516128 0 72.32258064516128C-4.06196525682003 72.32258064516128 -7.354838709677419 69.0297071923039 -7.354838709677419 64.96774193548386Z" style="fill:#FFFFFF;"/><path d="M41.677419354838705 64.96774193548386C41.677419354838705 60.90577667866384 44.9702928076961 57.612903225806456 49.03225806451612 57.612903225806456C53.09422332133615 57.612903225806456 56.387096774193544 60.90577667866384 56.387096774193544 64.96774193548386C56.387096774193544 69.0297071923039 53.09422332133615 72.32258064516128 49.03225806451612 72.32258064516128C44.9702928076961 72.32258064516128 41.677419354838705 69.0297071923039 41.677419354838705 64.96774193548386Z" style="fill:#FFFFFF;"/><path d="M-56.387096774193544 114C-56.387096774193544 109.93803474317998 -53.09422332133615 106.64516129032256 -49.03225806451612 106.64516129032256C-44.9702928076961 106.64516129032256 -41.677419354838705 109.93803474317998 -41.677419354838705 114C-41.677419354838705 118.06196525682002 -44.9702928076961 121.35483870967742 -49.03225806451612 121.35483870967742C-53.09422332133615 121.35483870967742 -56.387096774193544 118.06196525682002 -56.387096774193544 114Z" style="fill:#FFFFFF;"/><path d="M-7.354838709677419 114C-7.354838709677419 109.93803474317998 -4.06196525682003 106.64516129032256 0 106.64516129032256C4.06196525682003 106.64516129032256 7.354838709677419 109.93803474317998 7.354838709677419 114C7.354838709677419 118.06196525682002 4.06196525682003 121.35483870967742 0 121.35483870967742C-4.06196525682003 121.35483870967742 -7.354838709677419 118.06196525682002 -7.354838709677419 114Z" style="fill:#FFFFFF;"/><path d="M41.677419354838705 114C41.677419354838705 109.93803474317998 44.9702928076961 106.64516129032256 49.03225806451612 106.64516129032256C53.09422332133615 106.64516129032256 56.387096774193544 109.93803474317998 56.387096774193544 114C56.387096774193544 118.06196525682002 53.09422332133615 121.35483870967742 49.03225806451612 121.35483870967742C44.9702928076961 121.35483870967742 41.677419354838705 118.06196525682002 41.677419354838705 114Z" style="fill:#FFFFFF;"/><path d="M-56.387096774193544 163.03225806451613C-56.387096774193544 158.9702928076961 -53.09422332133615 155.67741935483872 -49.03225806451612 155.67741935483872C-44.9702928076961 155.67741935483872 -41.677419354838705 158.9702928076961 -41.677419354838705 163.03225806451613C-41.677419354838705 167.09422332133616 -44.9702928076961 170.38709677419357 -49.03225806451612 170.38709677419357C-53.09422332133615 170.38709677419357 -56.387096774193544 167.09422332133616 -56.387096774193544 163.03225806451613Z" style="fill:#FFFFFF;"/><path d="M-7.354838709677419 163.03225806451613C-7.354838709677419 158.9702928076961 -4.06196525682003 155.67741935483872 0 155.67741935483872C4.06196525682003 155.67741935483872 7.354838709677419 158.9702928076961 7.354838709677419 163.03225806451613C7.354838709677419 167.09422332133616 4.06196525682003 170.38709677419357 0 170.38709677419357C-4.06196525682003 170.38709677419357 -7.354838709677419 167.09422332133616 -7.354838709677419 163.03225806451613Z" style="fill:#FFFFFF;"/><path d="M41.677419354838705 163.03225806451613C41.677419354838705 158.9702928076961 44.9702928076961 155.67741935483872 49.03225806451612 155.67741935483872C53.09422332133615 155.67741935483872 56.387096774193544 158.9702928076961 56.387096774193544 163.03225806451613C56.387096774193544 167.09422332133616 53.09422332133615 170.38709677419357 49.03225806451612 170.38709677419357C44.9702928076961 170.38709677419357 41.677419354838705 167.09422332133616 41.677419354838705 163.03225806451613Z"/></g>
<g><path d="M-76 254.96774193548384C-76 240.07386932714377 -63.92613067285624 228 -49.03225806451612 228C-34.13838545617602 228 -22.064516129032256 240.07386932714377 -22.064516129032256 254.96774193548384C-22.064516129032256 269.861614543824 -34.13838545617602 281.9354838709677 -49.03225806451612 281.9354838709677C-63.92613067285624 281.9354838709677 -76 269.861614543824 -76 254.96774193548384Z"/><path d="M-26.96774193548387 254.96774193548384C-26.96774193548387 240.07386932714377 -14.893872608340109 228 0 228C14.893872608340109 228 26.96774193548387 240.07386932714377 26.96774193548387 254.96774193548384C26.96774193548387 269.861614543824 14.893872608340109 281.9354838709677 0 281.9354838709677C-14.893872608340109 281.9354838709677 -26.96774193548387 269.861614543824 -26.96774193548387 254.96774193548384Z"/><path d="M22.064516129032256 254.96774193548384C22.064516129032256 240.07386932714377 34.13838545617602 228 49.03225806451612 228C63.92613067285624 228 76 240.07386932714377 76 254.96774193548384C76 269.861614543824 63.92613067285624 281.9354838709677 49.03225806451612 281.9354838709677C34.13838545617602 281.9354838709677 22.064516129032256 269.861614543824 22.064516129032256 254.96774193548384Z"/><path d="M-76 304C-76 289.10612739165987 -63.92613067285624 277.0322580645161 -49.03225806451612 277.0322580645161C-34.13838545617602 277.0322580645161 -22.064516129032256 289.10612739165987 -22.064516129032256 304C-22.064516129032256 318.89387260834013 -34.13838545617602 330.96774193548384 -49.03225806451612 330.96774193548384C-63.92613067285624 330.96774193548384 -76 318.89387260834013 -76 304Z"/><path d="M-26.96774193548387 304C-26.96774193548387 289.10612739165987 -14.893872608340109 277.0322580645161 0 277.0322580645161C14.893872608340109 277.0322580645161 26.96774193548387 289.10612739165987 26.96774193548387 304C26.96774193548387 318.89387260834013 14.893872608340109 330.96774193548384 0 330.96774193548384C-14.893872608340109 330.96774193548384 -26.96774193548387 318.89387260834013 -26.96774193548387 304Z"/><path d="M22.064516129032256 304C22.064516129032256 289.10612739165987 34.13838545617602 277.0322580645161 49.03225806451612 277.0322580645161C63.92613067285624 277.0322580645161 76 289.10612739165987 76 304C76 318.89387260834013 63.92613067285624 330.96774193548384 49.03225806451612 330.96774193548384C34.13838545617602 330.96774193548384 22.064516129032256 318.89387260834013 22.064516129032256 304Z"/><path d="M-76 353.0322580645161C-76 338.13838545617597 -63.92613067285624 326.06451612903226 -49.03225806451612 326.06451612903226C-34.13838545617602 326.06451612903226 -22.064516129032256 338.13838545617597 -22.064516129032256 353.0322580645161C-22.064516129032256 367.9261306728562 -34.13838545617602 380 -49.03225806451612 380C-63.92613067285624 380 -76 367.9261306728562 -76 353.0322580645161Z"/><path d="M-26.96774193548387 353.0322580645161C-26.96774193548387 338.13838545617597 -14.893872608340109 326.06451612903226 0 326.06451612903226C14.893872608340109 326.06451612903226 26.96774193548387 338.13838545617597 26.96774193548387 353.0322580645161C26.96774193548387 367.9261306728562 14.893872608340109 380 0 380C-14.893872608340109 380 -26.96774193548387 367.9261306728562 -26.96774193548387 353.0322580645161Z"/><path d="M22.064516129032256 353.0322580645161C22.064516129032256 338.13838545617597 34.13838545617602 326.06451612903226 49.03225806451612 326.06451612903226C63.92613067285624 326.06451612903226 76 338.13838545617597 76 353.0322580645161C76 367.9261306728562 63.92613067285624 380 49.03225806451612 380C34.13838545617602 380 22.064516129032256 367.9261306728562 22.064516129032256 353.0322580645161Z"/><path d="M-66.19354838709677 254.96774193548384C-66.19354838709677 245.48982300290376 -58.510176997096195 237.8064516129032 -49.03225806451612 237.8064516129032C-39.554339131936054 237.8064516129032 -31.87096774193548 245.48982300290376 -31.87096774193548 254.96774193548384C-31.87096774193548 264.44566086806395 -39.554339131936054 272.1290322580645 -49.03225806451612 272.1290322580645C-58.510176997096195 272.1290322580645 -66.19354838709677 264.44566086806395 -66.19354838709677 254.96774193548384Z" style="fill:#FFFFFF;"/><path d="M-17.161290322580644 254.96774193548384C-17.161290322580644 245.48982300290376 -9.477918932580069 237.8064516129032 0 237.8064516129032C9.477918932580069 237.8064516129032 17.161290322580644 245.48982300290376 17.161290322580644 254.96774193548384C17.161290322580644 264.44566086806395 9.477918932580069 272.1290322580645 0 272.1290322580645C-9.477918932580069 272.1290322580645 -17.161290322580644 264.44566086806395 -17.161290322580644 254.96774193548384Z" style="fill:#FFFFFF;"/><path d="M31.87096774193548 254.96774193548384C31.87096774193548 245.48982300290376 39.554339131936054 237.8064516129032 49.03225806451612 237.8064516129032C58.510176997096195 237.8064516129032 66.19354838709677 245.48982300290376 66.19354838709677 254.96774193548384C66.19354838709677 264.44566086806395 58.510176997096195 272.1290322580645 49.03225806451612 272.1290322580645C39.554339131936054 272.1290322580645 31.87096774193548 264.44566086806395 31.87096774193548 254.96774193548384Z" style="fill:#FFFFFF;"/><path d="M-66.19354838709677 304C-66.19354838709677 294.5220810674199 -58.510176997096195 286.83870967741933 -49.03225806451612 286.83870967741933C-39.554339131936054 286.83870967741933 -31.87096774193548 294.5220810674199 -31.87096774193548 304C-31.87096774193548 313.47791893258005 -39.554339131936054 321.1612903225806 -49.03225806451612 321.1612903225806C-58.510176997096195 321.1612903225806 -66.19354838709677 313.47791893258005 -66.19354838709677 304Z" style="fill:#FFFFFF;"/><path d="M-17.161290322580644 304C-17.161290322580644 294.5220810674199 -9.477918932580069 286.83870967741933 0 286.83870967741933C9.477918932580069 286.83870967741933 17.161290322580644 294.5220810674199 17.161290322580644 304C17.161290322580644 313.47791893258005 9.477918932580069 321.1612903225806 0 321.1612903225806C-9.477918932580069 321.1612903225806 -17.161290322580644 313.47791893258005 -17.161290322580644 304Z" style="fill:#FFFFFF;"/><path d="M31.87096774193548 304C31.87096774193548 294.5220810674199 39.554339131936054 286.83870967741933 49.03225806451612 286.83870967741933C58.510176997096195 286.83870967741933 66.19354838709677 294.5220810674199 66.19354838709677 304C66.19354838709677 313.47791893258005 58.510176997096195 321.1612903225806 49.03225806451612 321.1612903225806C39.554339131936054 321.1612903225806 31.87096774193548 313.47791893258005 31.87096774193548 304Z" style="fill:#FFFFFF;"/><path d="M-66.19354838709677 353.0322580645161C-66.19354838709677 343.55433913193605 -58.510176997096195 335.8709677419355 -49.03225806451612 335.8709677419355C-39.554339131936054 335.8709677419355 -31.87096774193548 343.55433913193605 -31.87096774193548 353.0322580645161C-31.87096774193548 362.5101769970962 -39.554339131936054 370.19354838709677 -49.03225806451612 370.19354838709677C-58.510176997096195 370.19354838709677 -66.19354838709677 362.5101769970962 -66.19354838709677 353.0322580645161Z" style="fill:#FFFFFF;"/><path d="M-17.161290322580644 353.0322580645161C-17.161290322580644 343.55433913193605 -9.477918932580069 335.8709677419355 0 335.8709677419355C9.477918932580069 335.8709677419355 17.161290322580644 343.55433913193605 17.161290322580644 353.0322580645161C17.161290322580644 362.5101769970962 9.477918932580069 370.19354838709677 0 370.19354838709677C-9.477918932580069 370.19354838709677 -17.161290322580644 362.5101769970962 -17.161290322580644 353.0322580645161Z" style="fill:#FFFFFF;"/><path d="M31.87096774193548 353.0322580645161C31.87096774193548 343.55433913193605 39.554339131936054 335.8709677419355 49.03225806451612 335.8709677419355C58.510176997096195 335.8709677419355 66.19354838709677 343.55433913193605 66.19354838709677 353.0322580645161C66.19354838709677 362.5101769970962 58.510176997096195 370.19354838709677 49.03225806451612 370.19354838709677C39.554339131936054 370.19354838709677 31.87096774193548 362.5101769970962 31.87096774193548 353.0322580645161Z" style="fill:#FFFFFF;"/><path d="M-24.51612903225806 262.14834988058783L-7.180607945103995 279.4838709677419L-24.51612903225806 296.819392054896L-41.851650119412135 279.4838709677419Z"/><path d="M24.51612903225806 262.14834988058783L41.851650119412135 279.4838709677419L24.51612903225806 296.819392054896L7.180607945103995 279.4838709677419Z"/><path d="M-24.51612903225806 311.180607945104L-7.180607945103995 328.51612903225805L-24.51612903225806 345.8516501194121L-41.851650119412135 328.51612903225805Z"/><path d="M24.51612903225806 311.180607945104L41.851650119412135 328.51612903225805L24.51612903225806 345.8516501194121L7.180607945103995 328.51612903225805Z"/><path d="M-56.387096774193544 254.96774193548384C-56.387096774193544 250.90577667866387 -53.09422332133615 247.61290322580643 -49.03225806451612 247.61290322580643C-44.9702928076961 247.61290322580643 -41.677419354838705 250.90577667866387 -41.677419354838705 254.96774193548384C-41.677419354838705 259.0297071923039 -44.9702928076961 262.3225806451613 -49.03225806451612 262.3225806451613C-53.09422332133615 262.3225806451613 -56.387096774193544 259.0297071923039 -56.387096774193544 254.96774193548384Z"/><path d="M-7.354838709677419 254.96774193548384C-7.354838709677419 250.90577667866387 -4.06196525682003 247.61290322580643 0 247.61290322580643C4.06196525682003 247.61290322580643 7.354838709677419 250.90577667866387 7.354838709677419 254.96774193548384C7.354838709677419 259.0297071923039 4.06196525682003 262.3225806451613 0 262.3225806451613C-4.06196525682003 262.3225806451613 -7.354838709677419 259.0297071923039 -7.354838709677419 254.96774193548384Z"/><path d="M41.677419354838705 254.96774193548384C41.677419354838705 250.90577667866387 44.9702928076961 247.61290322580643 49.03225806451612 247.61290322580643C53.09422332133615 247.61290322580643 56.387096774193544 250.90577667866387 56.387096774193544 254.96774193548384C56.387096774193544 259.0297071923039 53.09422332133615 262.3225806451613 49.03225806451612 262.3225806451613C44.9702928076961 262.3225806451613 41.677419354838705 259.0297071923039 41.677419354838705 254.96774193548384Z"/><path d="M-56.387096774193544 304C-56.387096774193544 299.93803474317997 -53.09422332133615 296.64516129032256 -49.03225806451612 296.64516129032256C-44.9702928076961 296.64516129032256 -41.677419354838705 299.93803474317997 -41.677419354838705 304C-41.677419354838705 308.06196525682003 -44.9702928076961 311.35483870967744 -49.03225806451612 311.35483870967744C-53.09422332133615 311.35483870967744 -56.387096774193544 308.06196525682003 -56.387096774193544 304Z" style="fill:#FFFFFF;"/><path d="M-7.354838709677419 304C-7.354838709677419 299.93803474317997 -4.06196525682003 296.64516129032256 0 296.64516129032256C4.06196525682003 296.64516129032256 7.354838709677419 299.93803474317997 7.354838709677419 304C7.354838709677419 308.06196525682003 4.06196525682003 311.35483870967744 0 311.35483870967744C-4.06196525682003 311.35483870967744 -7.354838709677419 308.06196525682003 -7.354838709677419 304Z" style="fill:#FFFFFF;"/><path d="M41.677419354838705 304C41.677419354838705 299.93803474317997 44.9702928076961 296.64516129032256 49.03225806451612 296.64516129032256C53.09422332133615 296.64516129032256 56.387096774193544 299.93803474317997 56.387096774193544 304C56.387096774193544 308.06196525682003 53.09422332133615 311.35483870967744 49.03225806451612 311.35483870967744C44.9702928076961 311.35483870967744 41.677419354838705 308.06196525682003 41.677419354838705 304Z" style="fill:#FFFFFF;"/><path d="M-56.387096774193544 353.0322580645161C-56.387096774193544 348.97029280769607 -53.09422332133615 345.6774193548387 -49.03225806451612 345.6774193548387C-44.9702928076961 345.6774193548387 -41.677419354838705 348.97029280769607 -41.677419354838705 353.0322580645161C-41.677419354838705 357.09422332133613 -44.9702928076961 360.38709677419354 -49.03225806451612 360.38709677419354C-53.09422332133615 360.38709677419354 -56.387096774193544 357.09422332133613 -56.387096774193544 353.0322580645161Z"/><path d="M-7.354838709677419 353.0322580645161C-7.354838709677419 348.97029280769607 -4.06196525682003 345.6774193548387 0 345.6774193548387C4.06196525682003 345.6774193548387 7.354838709677419 348.97029280769607 7.354838709677419 353.0322580645161C7.354838709677419 357.09422332133613 4.06196525682003 360.38709677419354 0 360.38709677419354C-4.06196525682003 360.38709677419354 -7.354838709677419 357.09422332133613 -7.354838709677419 353.0322580645161Z"/><path d="M41.677419354838705 353.0322580645161C41.677419354838705 348.97029280769607 44.9702928076961 345.6774193548387 49.03225806451612 345.6774193548387C53.09422332133615 345.6774193548387 56.387096774193544 348.97029280769607 56.387096774193544 353.0322580645161C56.387096774193544 357.09422332133613 53.09422332133615 360.38709677419354 49.03225806451612 360.38709677419354C44.9702928076961 360.38709677419354 41.677419354838705 357.09422332133613 41.677419354838705 353.0322580645161Z"/></g>
<path d="M-95 -361L-57 -399L57 -399L95 -361" style="fill:none;stroke:#000000;stroke-width:1;"/>
<path d="M-95 -171L-133 -209L-133 -323L-95 -361" style="fill:none;stroke:#000000;stroke-width:1;"/>
<path d="M95 -361L133 -323L133 -209L95 -171" style="fill:none;stroke:#000000;stroke-width:1;"/>
<path d="M-95 209L-133 171L-133 57L-95 19" style="fill:none;stroke:#000000;stroke-width:1;"/>
<path d="M95 19L133 57L133 171L95 209" style="fill:none;stroke:#000000;stroke-width:1;"/>
<path d="M-95 399L-133 361L-133 247L-95 209" style="fill:none;stroke:#000000;stroke-width:1;"/>
<path d="M95 209L133 247L133 361L95 399" style="fill:none;stroke:#000000;stroke-width:1;"/>
</g>
</svg>
